# xmcd
#
# Track frame offsets:
#	150
#	16270
#	32963
#	50131
#	67172
#	81412
#	96198
#	108578
#	123019
#	137970
#	153243
#	165049
#	178741
#	193297
#	207877
#	223953
#	241633
#	260599
#	276333
#	294301
#
# Disc length: 4121 seconds
#
# Revision: 2
# Processed by: cddbd v1.5.2PL0 Copyright (c) Steve Scherf et al.
# Submitted via: EasyCDDAExtractor 11.5.0.1
#
DISCID=2e101714
DTITLE=Various Artist - NCT 025
DYEAR=2001
DGENRE=Country
TTITLE0=Mary Chapin Carpenter - Simple Life
TTITLE1=Keith Urban - But For The Grace Of God
TTITLE2=Chris Cagle - Laredo
TTITLE3=Darryl Worley - Second Wind
TTITLE4=Mike Walker - Honey Do
TTITLE5=Clay Davidson - Sometimes
TTITLE6=Kortney Kayle - Unbroken By You
TTITLE7=Andy Griggs - How Cool Is That
TTITLE8=Cyndi Thomson - What I Really Meant To Say
TTITLE9=Diamond Rio - Sweet Summer
TTITLE10=Trent Summar ft. New Row Mob - Paint Your Name In Purple
TTITLE11=Keith Urban - Where The Blacktop Ends
TTITLE12=Alabama - Will You Marry Me
TTITLE13=Kristin Garner - Let's Burn It Down
TTITLE14=John Michael Montgomery - Brand New Me
TTITLE15=Meredith Edwards - The Bird Song
TTITLE16=Lonestar - I'm Already There
TTITLE17=Trick Pony - On A Night Like This
TTITLE18=Kasey Chambers - Cry Like A Baby
TTITLE19=Shane Sellers - Matthew, Mark, Luke And Earnhardt
EXTD=ERG May 2001
EXTT0=
EXTT1=
EXTT2=
EXTT3=
EXTT4=
EXTT5=
EXTT6=
EXTT7=
EXTT8=
EXTT9=
EXTT10=
EXTT11=
EXTT12=
EXTT13=
EXTT14=
EXTT15=
EXTT16=
EXTT17=
EXTT18=
EXTT19=
PLAYORDER=
